{"title":"Robin Thicke Ft. T.I. &amp; Pharrell - Blurred Lines [Music Vide","uid":8466291,"size":64263909,"categoryP":"video","categoryS":"music_videos","magnet":"?xt=urn:btih:f984b2056f791b59eba7f7066c81acd3204a7c92&amp;dn=Robin+Thicke+Ft.+T.I.+%26amp%3B+Pharrell+-+Blurred+Lines+%5BMusic+Vide&amp;tr=udp%3A%2F%2Ftracker.openbittorrent.com%3A80&amp;tr=udp%3A%2F%2Fopen.demonii.com%3A1337&amp;tr=udp%3A%2F%2Ftracker.coppersurfer.tk%3A6969&amp;tr=udp%3A%2F%2Fexodus.desync.com%3A6969","seeders":1,"leechers":0,"uploader":"Sbyky","files":-1,"time":1368319973,"description":"[IMG]http://www.shotpix.com/images/04602428441817913825.png[/IMG]\n\nGeneral\nComplete name                            : Robin Thicke Ft. T.I. &amp; Pharrell - Blurred Lines [Music Video] 720p [Sbyky].mp4\nFormat                                   : MPEG-4\nFormat profile                           : Base Media / Version 2\nCodec ID                                 : mp42\nFile size                                : 61.3 MiB\nDuration                                 : 4mn 31s\nOverall bit rate mode                    : Variable\nOverall bit rate                         : 1 892 Kbps\nEncoded date                             : UTC 2013-04-08 14:36:08\nTagged date                              : UTC 2013-04-08 14:36:08\n\nVideo\nID                                       : 1\nFormat                                   : AVC\nFormat/Info                              : Advanced Video Codec\nFormat profile                           : &lt;a class=&quot;__cf_email__&quot; href=&quot;/cdn-cgi/l/email-protection&quot; data-cfemail=&quot;bff7d6d8d7fff38c918e&quot;&gt;[email&amp;#160;protected]&lt;/a&gt;&lt;script data-cfhash='f9e31' type=&quot;text/javascript&quot;&gt;\n/* &lt;![CDATA[ */!function(){try{var t=&quot;currentScript&quot;in document?document.currentScript:function(){for(var t=document.getElementsByTagName(&quot;script&quot;),e=t.length;e--;)if(t[e].getAttribute(&quot;data-cfhash&quot;))return t[e]}();if(t&amp;&amp;t.previousSibling){var e,r,n,i,c=t.previousSibling,a=c.getAttribute(&quot;data-cfemail&quot;);if(a){for(e=&quot;&quot;,r=parseInt(a.substr(0,2),16),n=2;a.length-n;n+=2)i=parseInt(a.substr(n,2),16)^r,e+=String.fromCharCode(i);e=document.createTextNode(e),c.parentNode.replaceChild(e,c)}t.parentNode.removeChild(t);}}catch(u){}}()/* ]]&gt; */&lt;/script&gt;\nFormat settings, CABAC                   : Yes\nFormat settings, ReFrames                : 1 frame\nCodec ID                                 : avc1\nCodec ID/Info                            : Advanced Video Coding\nDuration                                 : 4mn 31s\nBit rate                                 : 1 697 Kbps\nMaximum bit rate                         : 3 472 Kbps\nWidth                                    : 1 280 pixels\nHeight                                   : 720 pixels\nDisplay aspect ratio                     : 16:9\nFrame rate mode                          : Constant\nFrame rate                               : 23.976 fps\nColor space                              : YUV\nChroma subsampling                       : 4:2:0\nBit depth                                : 8 bits\nScan type                                : Progressive\nBits/(Pixel*Frame)                       : 0.077\nStream size                              : 55.0 MiB (90%)\nTagged date                              : UTC 2013-04-08 14:36:11\n\nAudio\nID                                       : 2\nFormat                                   : AAC\nFormat/Info                              : Advanced Audio Codec\nFormat profile                           : LC\nCodec ID                                 : 40\nDuration                                 : 4mn 31s\nBit rate mode                            : Variable\nBit rate                                 : 192 Kbps\nMaximum bit rate                         : 202 Kbps\nChannel(s)                               : 2 channels\nChannel positions                        : Front: L R\nSampling rate                            : 44.1 KHz\nCompression mode                         : Lossy\nStream size                              : 6.22 MiB (10%)\nTitle                                    : IsoMedia File Produced by Google, 5-11-2011\nEncoded date                             : UTC 2013-04-08 14:36:10\nTagged date                              : UTC 2013-04-08 14:36:11\n\nShared By Sbyky\n[IMG]http://www.shotpix.com/images/76014917432015785852.gif[/IMG]\n[IMG]http://www.shotpix.com/images/54100788659511547411.gif[/IMG]","torrent":{"xt":"urn:btih:f984b2056f791b59eba7f7066c81acd3204a7c92","amp;dn":"Robin+Thicke+Ft.+T.I.+%26amp%3B+Pharrell+-+Blurred+Lines+%5BMusic+Vide","amp;tr":["udp%3A%2F%2Ftracker.openbittorrent.com%3A80","udp%3A%2F%2Fopen.demonii.com%3A1337","udp%3A%2F%2Ftracker.coppersurfer.tk%3A6969","udp%3A%2F%2Fexodus.desync.com%3A6969"],"infoHash":"f984b2056f791b59eba7f7066c81acd3204a7c92","infoHashBuffer":{"type":"Buffer","data":[249,132,178,5,111,121,27,89,235,167,247,6,108,129,172,211,32,74,124,146]},"announce":[],"urlList":[]}}